<svg xmlns="http://www.w3.org/2000/svg" width="205.36" height="135.444" viewBox="0 0 205.36 135.444">
  <g id="logo" transform="translate(-49.64 -48.08)">
    <g id="F1_Year" transform="translate(49.64 52.898)">
      <g id="Group_1" data-name="Group 1" transform="translate(0 0)">
        <path id="Path_1" data-name="Path 1" d="M73.161,88.646,62.825,98.674H49.64l16.4-16.279c6.1-6.034,9.037-7.025,19.436-7.025h41.069L117.634,84.1H86.655c-7.768,0-9.421.6-13.494,4.55ZM116.3,85.49H86.842c-7.823,0-9.048.6-12.6,4.147l-9.037,9.037H77.432l2.91-2.91c1.921-1.921,2.781-2.1,6.654-2.1h21.138L116.3,85.49Zm3.188,13.185,23.366-23.3H128.343l-23.3,23.3h14.452Z" transform="translate(-49.64 -75.37)" fill="#e6002b"/>
        <path id="Path_2" data-name="Path 2" d="M488.923,183.6a2.549,2.549,0,1,1-.011-5.1,2.44,2.44,0,0,1,1.824.738,2.649,2.649,0,0,1,.005,3.626A2.432,2.432,0,0,1,488.923,183.6Zm-.014-4.7a2.028,2.028,0,0,0-1.513.625,2.192,2.192,0,0,0,0,3.033,2.148,2.148,0,0,0,3.026,0,2.2,2.2,0,0,0,0-3.038,2.028,2.028,0,0,0-1.513-.625Zm-.5,2.567v1h-.561v-2.828h1.065a1.393,1.393,0,0,1,.828.2.721.721,0,0,1,.275.616,1.3,1.3,0,0,1-.111.611.77.77,0,0,1-.381.321l.531,1.073h-.59l-.484-1h-.57Zm-.009-1.391v.952h.57a.534.534,0,0,0,.378-.111.486.486,0,0,0,.117-.364q0-.477-.6-.477Z" transform="translate(-409.258 -160.293)" fill="#e6002b"/>
      </g>
      <g id="Group_2" data-name="Group 2" transform="translate(0.055 118.518)">
        <path id="Path_3" data-name="Path 3" d="M52.5,752.734A3.511,3.511,0,0,1,55.88,749.1h6.751V746.68H49.95V749.1h1.428a6.331,6.331,0,0,0-1.125,3.632v6.052H66.005v-2.42H52.5Z" transform="translate(-49.95 -746.68)" fill="#e6002b"/>
        <path id="Path_4" data-name="Path 4" d="M160.01,746.69v7.263h9V746.69Zm6.751,4.843h-4.5v-2.42h4.5Z" transform="translate(-140.579 -746.688)" fill="#e6002b"/>
      </g>
      <path id="Path_5" data-name="Path 5" d="M69.15,731.366h9V724.1h-9Zm2.251-4.843h4.5v2.42H71.4Zm41.217-4.841a6.041,6.041,0,0,0-4.843-2.422h-37.5a5.5,5.5,0,0,0-4.5,2.42,5.494,5.494,0,0,0-4.5-2.42H49.83v2.42H61.274a3.641,3.641,0,0,1,0,7.263H54.523v2.42H64.761a6.255,6.255,0,0,0,.89,2.237H52.273v-3.446a3.511,3.511,0,0,1,3.376-3.632H62.4V724.1H49.83v2.422h1.317a6.331,6.331,0,0,0-1.125,3.632v6.052h15.75v-2.42h0a5.494,5.494,0,0,0,4.5,2.42h6.749A5.345,5.345,0,0,0,80.4,735v1.211h27.374a6.046,6.046,0,0,0,4.843-2.422,6.453,6.453,0,0,0,1.181-2.708v-6.688a6.465,6.465,0,0,0-1.181-2.708ZM80.4,730.155a3.613,3.613,0,0,1-2.316,3.446H69.217a3.616,3.616,0,0,1-2.316-3.446v-4.843a3.511,3.511,0,0,1,3.376-3.632h6.749a3.511,3.511,0,0,1,3.376,3.632Zm31.005-.182a3.632,3.632,0,0,1-3.632,3.632l-24.971,0v-3.446a3.632,3.632,0,0,1,3.632-3.632H94.91V724.1H82.537a6.28,6.28,0,0,0-1.012-2.421H93.7a3.632,3.632,0,0,1,0,7.263H85.092v2.422h23.894v-2.42H99.041a6.626,6.626,0,0,0,.554-1.174.844.844,0,0,0,.074-.249c.009-.035.018-.071.026-.111a.08.08,0,0,1,.005-.019v-.009a6.554,6.554,0,0,0,.083-.858h9.2v-2.42H99.611a6.814,6.814,0,0,0-1.07-2.421h9.233a3.632,3.632,0,0,1,3.632,3.632v4.661Z" transform="translate(-49.796 -605.583)" fill="#e6002b"/>
    </g>
    <g id="Sponsor_Logo" transform="translate(148.48 48.08)">
      <g id="Group_11" data-name="Group 11">
        <g id="Group_6" data-name="Group 6" transform="translate(0 19.415)">
          <g id="Group_3" data-name="Group 3" transform="translate(54.417)">
            <path id="Path_6" data-name="Path 6" d="M919.051,158.05a1.328,1.328,0,1,0,1.328,1.328A1.329,1.329,0,0,0,919.051,158.05Zm0,2.389a1.059,1.059,0,1,1,1.057-1.059A1.062,1.062,0,0,1,919.051,160.439Z" transform="translate(-917.72 -158.05)" fill="#007f2d"/>
            <path id="Path_7" data-name="Path 7" d="M923.047,162a.378.378,0,0,0,.214-.364.408.408,0,0,0-.436-.4h-.685v1.43h.328v-.558h.124c.166,0,.261.044.307.2a2.662,2.662,0,0,0,.117.36h.357a1.188,1.188,0,0,1-.132-.35.408.408,0,0,0-.194-.32Zm-.312-.173h-.263V161.5h.231c.1,0,.221.041.221.155A.174.174,0,0,1,922.735,161.83Z" transform="translate(-921.36 -160.677)" fill="#007f2d"/>
          </g>
          <g id="Group_5" data-name="Group 5" transform="translate(0 0.6)">
            <path id="Path_8" data-name="Path 8" d="M664.643,179.994a3.622,3.622,0,0,1-1.347.9c-.454.147-1.748.26-2.129-.809-.083-.231-.016-.3.194-.364.313-.094,1.116-.328,1.965-.648a10.355,10.355,0,0,0,1.672-.784.727.727,0,0,0,.274-.992,3.335,3.335,0,0,0-3.8-2.1,3.468,3.468,0,0,0-2.773,3.427,3.515,3.515,0,0,0,2.821,3.639,3.8,3.8,0,0,0,3.914-1.552c.291-.459-.53-1-.794-.722Zm-3.66-1.622c-.159-.436-.032-1.774.7-2.027.775-.265,1.252.134,1.483.915a.9.9,0,0,1-.028.71,1.351,1.351,0,0,1-.6.341l-.581.192c-.57.194-.842.233-.976-.131Z" transform="translate(-650.012 -172.715)" fill="#007f2d"/>
            <path id="Path_9" data-name="Path 9" d="M771.853,179.994a3.622,3.622,0,0,1-1.347.9c-.454.147-1.748.26-2.129-.809-.083-.231-.016-.3.194-.364.312-.094,1.116-.328,1.965-.648a10.278,10.278,0,0,0,1.672-.784.727.727,0,0,0,.274-.992,3.336,3.336,0,0,0-3.8-2.1,3.468,3.468,0,0,0-2.774,3.427,3.515,3.515,0,0,0,2.821,3.639,3.794,3.794,0,0,0,3.912-1.552c.291-.459-.53-1-.794-.722Zm-3.66-1.622a2.291,2.291,0,0,1,.09-1.326,1.1,1.1,0,0,1,.614-.7.987.987,0,0,1,.893.034,1.432,1.432,0,0,1,.588.881.9.9,0,0,1-.028.71,1.328,1.328,0,0,1-.6.341c-.251.09-.475.162-.581.2-.574.18-.842.23-.976-.134Z" transform="translate(-738.294 -172.715)" fill="#007f2d"/>
            <path id="Path_10" data-name="Path 10" d="M853.573,179.994a3.621,3.621,0,0,1-1.347.9c-.454.147-1.748.26-2.129-.809-.083-.231-.016-.3.194-.364.313-.094,1.116-.328,1.965-.648a10.276,10.276,0,0,0,1.672-.784.727.727,0,0,0,.274-.992,3.335,3.335,0,0,0-3.8-2.1,3.468,3.468,0,0,0-2.774,3.427,3.515,3.515,0,0,0,2.821,3.639,3.8,3.8,0,0,0,3.914-1.552c.291-.459-.53-1-.794-.722Zm-3.66-1.622a2.278,2.278,0,0,1,.092-1.326,1.1,1.1,0,0,1,.614-.7.991.991,0,0,1,.9.034,1.432,1.432,0,0,1,.588.881.9.9,0,0,1-.028.71,1.328,1.328,0,0,1-.6.341c-.251.09-.475.162-.581.2-.574.18-.842.23-.976-.134Z" transform="translate(-805.587 -172.715)" fill="#007f2d"/>
            <path id="Path_11" data-name="Path 11" d="M614.915,170a.724.724,0,0,1-.3.674l-.461.208a.178.178,0,0,0-.106.191.259.259,0,0,0,.007.069l.055.523c.025.143.122.166.311.166h3.339c.189,0,.286-.023.309-.166l.055-.523a.349.349,0,0,0,.007-.069.18.18,0,0,0-.106-.191l-.461-.208a.722.722,0,0,1-.3-.674V164.22a.723.723,0,0,1,.3-.674l.461-.208a.178.178,0,0,0,.106-.191.362.362,0,0,0-.007-.069l-.055-.392c-.025-.143-.122-.166-.309-.166h-3.181c-.189,0-.286.023-.309.166l-.055.392a.348.348,0,0,0-.007.069.18.18,0,0,0,.106.191l.376.208c.215.122.229.4.229.674v1.612a.2.2,0,0,1-.2.2h-1.808a.2.2,0,0,1-.2-.2V164.22c0-.275.014-.551.229-.674l.376-.208a.178.178,0,0,0,.106-.191.357.357,0,0,0-.007-.069l-.055-.392c-.025-.143-.122-.166-.311-.166h-3.181c-.189,0-.286.023-.311.166l-.055.392a.344.344,0,0,0-.007.069.18.18,0,0,0,.106.191l.461.208a.722.722,0,0,1,.3.674V170a.723.723,0,0,1-.3.674l-.461.208a.178.178,0,0,0-.106.191.357.357,0,0,0,.007.069l.055.523c.025.143.122.166.311.166H613.2c.189,0,.286-.023.311-.166l.055-.523a.349.349,0,0,0,.007-.069.18.18,0,0,0-.106-.191l-.461-.208a.722.722,0,0,1-.3-.674V167.65a.2.2,0,0,1,.2-.2h1.808a.2.2,0,0,1,.2.2V170Z" transform="translate(-609.49 -162.331)" fill="#007f2d"/>
            <g id="Group_4" data-name="Group 4" transform="translate(15.706)">
              <path id="Path_12" data-name="Path 12" d="M703.508,162.613a1.2,1.2,0,1,1-1.2-1.163A1.184,1.184,0,0,1,703.508,162.613Z" transform="translate(-700.632 -161.45)" fill="#007f2d"/>
              <path id="Path_13" data-name="Path 13" d="M698.8,183.664c-.18,0-.274-.023-.3-.159l-.053-.521a.462.462,0,0,1,0-.065.179.179,0,0,1,.1-.182l.358-.2a.709.709,0,0,0,.288-.646v-3.3c0-.275-.048-.629-.29-.75l-.229-.132a.178.178,0,0,1-.106-.191.258.258,0,0,1,.007-.069l.055-.392c.025-.143.122-.166.311-.166H701.2a.2.2,0,0,1,.2.2v4.8a.708.708,0,0,0,.288.646l.358.2a.176.176,0,0,1,.1.182.438.438,0,0,1,0,.065l-.051.521c-.023.136-.116.159-.3.159h-2.987Z" transform="translate(-698.45 -174.164)" fill="#007f2d"/>
            </g>
            <path id="Path_14" data-name="Path 14" d="M725.274,176.05l.355-.173a3.091,3.091,0,0,1,2.066-.358,1.683,1.683,0,0,1,1.179,1.868v3.655c0,.155.007.221.079.26.1.053.267-.106.427-.189s.254.014.353.125a.355.355,0,0,1,.108.411,1.683,1.683,0,0,1-1.582.89,1.4,1.4,0,0,1-1.52-1.386v-3.517a.62.62,0,0,0-.694-.687c-.457.057-.789.44-.789,1.121V180.7a.707.707,0,0,0,.288.646l.358.2a.176.176,0,0,1,.1.182.438.438,0,0,1,0,.065l-.053.521c-.023.136-.117.159-.3.159h-2.987c-.18,0-.274-.023-.3-.159l-.051-.521a.462.462,0,0,1,0-.065.179.179,0,0,1,.1-.182l.358-.2a.71.71,0,0,0,.288-.646v-3.3c0-.275-.048-.628-.29-.75l-.229-.132a.179.179,0,0,1-.106-.191.365.365,0,0,1,.007-.069l.055-.392c.025-.143.122-.166.309-.166h2.124a.284.284,0,0,1,.281.2l.069.148Z" transform="translate(-702.392 -172.975)" fill="#007f2d"/>
            <path id="Path_15" data-name="Path 15" d="M890.413,176.05l.355-.173a3.091,3.091,0,0,1,2.066-.358,1.683,1.683,0,0,1,1.179,1.868v3.655c0,.155.007.221.079.26.1.053.267-.106.427-.189s.254.014.353.125a.355.355,0,0,1,.108.411,1.683,1.683,0,0,1-1.582.89,1.4,1.4,0,0,1-1.52-1.386v-3.517a.62.62,0,0,0-.692-.687c-.457.057-.789.44-.789,1.121V180.7a.707.707,0,0,0,.288.646l.358.2a.176.176,0,0,1,.1.182.438.438,0,0,1,0,.065l-.053.521c-.023.136-.117.159-.3.159H887.8c-.182,0-.274-.023-.3-.159l-.051-.521a.462.462,0,0,1,0-.065.179.179,0,0,1,.1-.182l.358-.2a.71.71,0,0,0,.288-.646v-3.3c0-.275-.048-.628-.29-.75l-.23-.132a.179.179,0,0,1-.106-.191.361.361,0,0,1,.007-.069l.055-.392c.025-.143.122-.166.311-.166h2.124a.284.284,0,0,1,.281.2l.069.148Z" transform="translate(-838.377 -172.975)" fill="#007f2d"/>
            <path id="Path_16" data-name="Path 16" d="M812.162,170.147a1.482,1.482,0,0,0,.551.556l.358.2a.176.176,0,0,1,.1.182.438.438,0,0,1,0,.065l-.051.521c-.023.136-.117.159-.3.159h-1.8c-.309,0-.332-.09-.471-.341l-1.513-2.754-.568.546v.775a.731.731,0,0,0,.33.646l.358.2a.176.176,0,0,1,.1.182.438.438,0,0,1,0,.065l-.051.521c-.023.136-.117.159-.3.159H805.91c-.18,0-.274-.023-.3-.159l-.051-.521a.293.293,0,0,1,0-.065.179.179,0,0,1,.1-.182l.358-.2a.71.71,0,0,0,.288-.646v-5.911a.705.705,0,0,0-.288-.646l-.358-.2a.18.18,0,0,1-.1-.182.462.462,0,0,1,0-.065l.051-.373c.023-.136.117-.159.3-.159h2.164a.385.385,0,0,1,.385.385v4.486l.962-.869c.138-.118.362-.316.45-.4s.106-.217-.019-.27l-.341-.154a.162.162,0,0,1-.1-.173.275.275,0,0,1,.005-.062l.049-.477c.023-.129.111-.15.282-.15h2.594c.171,0,.261.021.282.15l.049.477a.46.46,0,0,1,.005.062c.005.1-.117.154-.193.187a1.847,1.847,0,0,0-.351.148,3.464,3.464,0,0,0-.572.441l-1,.96,1.591,2.887Z" transform="translate(-770.943 -162.331)" fill="#007f2d"/>
          </g>
        </g>
        <g id="Group_10" data-name="Group 10" transform="translate(17.365)">
          <g id="Group_7" data-name="Group 7" transform="translate(18.022 13.916)">
            <path id="Path_17" data-name="Path 17" d="M828.691,128.139l0-.044h-.3a.394.394,0,0,0,.418.443.434.434,0,0,0,.47-.471.347.347,0,0,0-.244-.374v-.005a.364.364,0,0,0,.2-.373.376.376,0,0,0-.4-.415c-.291,0-.381.212-.373.47h.275v-.034c0-.069.014-.164.106-.164s.109.092.109.162c0,.177-.072.21-.244.21v.275c.18-.005.238.044.238.222,0,.094-.009.224-.136.224a.118.118,0,0,1-.118-.124" transform="translate(-825.137 -126.9)" fill="#e6002b"/>
            <path id="Path_18" data-name="Path 18" d="M822.877,127.03h-.858v.274h.427l-.5,1.317h.328Z" transform="translate(-819.828 -127.007)" fill="#e6002b"/>
            <path id="Path_19" data-name="Path 19" d="M815.589,127.666v0a.333.333,0,0,0,.217-.335.4.4,0,1,0-.8,0,.338.338,0,0,0,.215.335v.005a.4.4,0,0,0-.275.42.449.449,0,0,0,.459.463.444.444,0,0,0,.454-.463.393.393,0,0,0-.275-.42m-.185-.512c.085,0,.1.109.1.169s0,.178-.1.178c-.079,0-.088-.122-.088-.18s.012-.168.088-.168m0,1.118c-.109,0-.132-.145-.132-.224s.023-.231.131-.231.139.152.139.231-.03.224-.138.224" transform="translate(-814.064 -126.908)" fill="#e6002b"/>
            <path id="Path_20" data-name="Path 20" d="M810.387,127.03h-.457v.274h.154v1.317h.3Z" transform="translate(-809.93 -127.007)" fill="#e6002b"/>
          </g>
          <g id="Group_8" data-name="Group 8" transform="translate(0 13.914)">
            <path id="Path_21" data-name="Path 21" d="M708.546,127.03h-.7v1.591h.7v-.3h-.357v-.358h.309v-.295h-.309v-.346h.353Z" transform="translate(-707.85 -127.005)" fill="#e6002b"/>
            <path id="Path_22" data-name="Path 22" d="M728.281,133.92a.2.2,0,0,0-.2.2.2.2,0,0,0,.2.2.2.2,0,0,0,0-.4" transform="translate(-724.508 -132.679)" fill="#e6002b"/>
            <path id="Path_23" data-name="Path 23" d="M722.608,127.03h-.888v.295h.27v1.3h.346v-1.3h.272Z" transform="translate(-719.271 -127.005)" fill="#e6002b"/>
            <path id="Path_24" data-name="Path 24" d="M715.424,127.273v-.307a.661.661,0,0,0-.309-.076.437.437,0,0,0-.456.466.519.519,0,0,0,.321.47c.1.067.2.111.2.231a.181.181,0,0,1-.2.175.451.451,0,0,1-.26-.085v.3a.593.593,0,0,0,.3.081.467.467,0,0,0,.5-.5c0-.431-.526-.447-.526-.706a.156.156,0,0,1,.173-.157.423.423,0,0,1,.253.1" transform="translate(-713.458 -126.89)" fill="#e6002b"/>
          </g>
          <g id="Group_9" data-name="Group 9" transform="translate(1.752)">
            <path id="Path_25" data-name="Path 25" d="M732.87,94.862a.362.362,0,0,1-.1.351,1.379,1.379,0,0,1-.115.09,1.339,1.339,0,0,1-.12.081.362.362,0,0,1-.365-.012s-.2-.125-.531-.348c-1.043-.7-3.374-2.286-4.647-3.192-1.273.906-3.6,2.486-4.647,3.192-.328.222-.531.348-.531.348a.362.362,0,0,1-.365.012,1.343,1.343,0,0,1-.12-.081,1.4,1.4,0,0,1-.115-.09.364.364,0,0,1-.1-.351l.03-.118a.3.3,0,0,0,.072.1,1.383,1.383,0,0,0,.115.09,1.34,1.34,0,0,0,.12.081.362.362,0,0,0,.365-.012s.2-.125.531-.348c1.043-.706,3.374-2.286,4.647-3.192,1.273.906,3.6,2.486,4.647,3.192.328.222.531.348.531.348a.362.362,0,0,0,.365.012,1.336,1.336,0,0,0,.12-.081,1.389,1.389,0,0,0,.115-.09.323.323,0,0,0,.072-.1Zm-10-6.393c-1.255-.932-3.478-2.659-4.472-3.434-.312-.244-.5-.4-.5-.4a.352.352,0,0,1-.086-.106c-.005.016-.025.072-.039.134a.364.364,0,0,0,.124.344s.182.154.5.4c.969.756,3.107,2.417,4.377,3.363.032-.106.063-.207.094-.3Zm13.285-3.937a.328.328,0,0,1-.087.106s-.182.154-.5.4c-.994.775-3.217,2.5-4.472,3.434.03.1.062.2.1.3,1.269-.946,3.407-2.608,4.377-3.363.313-.244.5-.4.5-.4a.361.361,0,0,0,.124-.344,1.28,1.28,0,0,0-.039-.134Z" transform="translate(-717.772 -78.095)" fill="#e6002b"/>
            <path id="Path_26" data-name="Path 26" d="M726.452,58.205l-2.009,6.174a.028.028,0,0,0,.009.03l.03.025a.229.229,0,0,0,.034.021.024.024,0,0,0,.03,0l5.251-3.819,5.25,3.819a.024.024,0,0,0,.03,0l.034-.021.03-.025a.023.023,0,0,0,.009-.028l-2.009-6.174,5.254-3.813a.029.029,0,0,0,.011-.028l-.011-.039a.226.226,0,0,0-.014-.037.026.026,0,0,0-.025-.018l-6.493,0-2-6.176a.025.025,0,0,0-.025-.018l-.039,0-.039,0a.025.025,0,0,0-.025.018l-2,6.176-6.493,0a.027.027,0,0,0-.025.018l-.014.037-.011.037a.028.028,0,0,0,.009.03l5.254,3.813Z" transform="translate(-720.58 -48.08)" fill="#e6002b"/>
          </g>
        </g>
      </g>
    </g>
    <g id="Text" transform="translate(49.695 81.734)">
      <g id="Group_12" data-name="Group 12" transform="translate(0)">
        <path id="Path_27" data-name="Path 27" d="M55.829,255.959H49.95V239H65.1v5.2H55.829v1.425H65.1v4.3H55.829v6.038Z" transform="translate(-49.95 -238.947)" fill="#eee"/>
        <path id="Path_28" data-name="Path 28" d="M148.58,255.7a9.492,9.492,0,0,1-3.448-.629,8.558,8.558,0,0,1-2.819-1.757,8.4,8.4,0,0,1-1.9-2.7,8.58,8.58,0,0,1,0-6.809,8.353,8.353,0,0,1,1.9-2.7,8.681,8.681,0,0,1,2.819-1.767,9.621,9.621,0,0,1,6.9,0,8.7,8.7,0,0,1,2.819,1.767,8.419,8.419,0,0,1,1.9,2.7,8.58,8.58,0,0,1,0,6.809,8.353,8.353,0,0,1-1.9,2.7,8.511,8.511,0,0,1-2.819,1.757A9.455,9.455,0,0,1,148.58,255.7Zm0-5.183a3.14,3.14,0,0,0,2.364-.943,3.55,3.55,0,0,0,0-4.749,3.14,3.14,0,0,0-2.364-.943,3.105,3.105,0,0,0-2.353.943,3.581,3.581,0,0,0,0,4.749A3.105,3.105,0,0,0,148.58,250.516Z" transform="translate(-123.863 -238.7)" fill="#eee"/>
        <path id="Path_29" data-name="Path 29" d="M261.73,255.959h-6.965l-4.636-6.421v6.421H244.25V239h11.6a6.575,6.575,0,0,1,2.555.464,5.567,5.567,0,0,1,1.843,1.209,4.967,4.967,0,0,1,1.109,1.718,5.434,5.434,0,0,1,.372,1.967,5.6,5.6,0,0,1-.305,1.82,4.976,4.976,0,0,1-.9,1.6,5.22,5.22,0,0,1-1.5,1.209,5.884,5.884,0,0,1-2.08.655l4.793,6.308ZM249.9,243.682v2.1h4.714a1.052,1.052,0,1,0,0-2.1H249.9Z" transform="translate(-209.947 -238.947)" fill="#eee"/>
        <path id="Path_30" data-name="Path 30" d="M373.442,245.243v10.628h-5.427V245.153c0-.309-.445-.563-.768-.586a.669.669,0,0,0-.634.586v4.731a7.16,7.16,0,0,1-.4,2.415,5.132,5.132,0,0,1-1.155,1.893,5.375,5.375,0,0,1-1.859,1.229,6.56,6.56,0,0,1-2.491.448h-.339a3.4,3.4,0,0,1-1.123-.141,5.672,5.672,0,0,1-1.017-.307,5.222,5.222,0,0,1-1.838-1.239,5.352,5.352,0,0,1-1.144-1.893,7.083,7.083,0,0,1-.4-2.4v-4.506a.814.814,0,1,0-1.628,0v10.492H347.35V245.243a6.562,6.562,0,0,1,.475-2.5,5.919,5.919,0,0,1,1.335-2.013,6.262,6.262,0,0,1,2.046-1.335,6.809,6.809,0,0,1,2.611-.486,5.814,5.814,0,0,1,2.454.486,5.228,5.228,0,0,1,1.944,1.368,5.949,5.949,0,0,1,1.186,2.126,8.666,8.666,0,0,1,.408,2.714v4.025a.588.588,0,1,0,1.176,0V245.6a8.546,8.546,0,0,1,.406-2.68A5.919,5.919,0,0,1,362.6,240.8a5.445,5.445,0,0,1,2.013-1.391,6.216,6.216,0,0,1,2.588-.5,6.329,6.329,0,0,1,2.5.486,6.079,6.079,0,0,1,1.979,1.335,5.964,5.964,0,0,1,1.3,2.013,6.7,6.7,0,0,1,.463,2.5Z" transform="translate(-294.845 -238.873)" fill="#eee"/>
        <path id="Path_31" data-name="Path 31" d="M516.75,247.38h0v.026a8.261,8.261,0,0,1-.7,3.416,8.379,8.379,0,0,1-1.9,2.7,8.51,8.51,0,0,1-2.819,1.757,9.772,9.772,0,0,1-6.9,0,8.51,8.51,0,0,1-2.819-1.757,8.4,8.4,0,0,1-1.9-2.7,8.256,8.256,0,0,1-.7-3.416V238.95h5.616v8.43h0v.026a3.3,3.3,0,0,0,.9,2.375,3.105,3.105,0,0,0,2.353.943,3.14,3.14,0,0,0,2.364-.943,3.278,3.278,0,0,0,.911-2.375V238.95h5.595Z" transform="translate(-419.729 -238.906)" fill="#eee"/>
        <path id="Path_32" data-name="Path 32" d="M618.474,255.959H603.55V239h5.879v11.758h9.045Z" transform="translate(-505.813 -238.947)" fill="#eee"/>
        <path id="Path_33" data-name="Path 33" d="M712.961,255.967h-6.213l-1.269-3.369h-5.992l-1.248,3.369H692.12l4.97-12.459a8.3,8.3,0,0,1,2.272-3.369,5.159,5.159,0,0,1,6.444,0,8.137,8.137,0,0,1,2.249,3.369l4.9,12.459ZM701.115,247.6h2.691l-1.356-3.188Z" transform="translate(-578.746 -238.955)" fill="#eee"/>
        <path id="Path_34" data-name="Path 34" d="M855.776,255.969H842.21v-5.517h3.843v-6.015H842.21V239.01h5.2a4.336,4.336,0,0,1,4.521,4.521v6.919h3.843v5.517Z" transform="translate(-702.338 -238.955)" fill="#eee"/>
        <path id="Path_35" data-name="Path 35" d="M55.829,375.959H49.95V359h5.879v5.653h6.308V359h5.879v16.959H62.137V370.17H55.829Z" transform="translate(-49.95 -337.761)" fill="#eee"/>
        <path id="Path_36" data-name="Path 36" d="M171.925,375.959H156.21V359h15.715v5.2H162.2v1.448h9.5l-.005,3.663h-9.5v1.448h9.722v5.2Z" transform="translate(-137.45 -337.761)" fill="#eee"/>
        <path id="Path_37" data-name="Path 37" d="M255.149,375.959H249.27V359h5.879Z" transform="translate(-214.08 -337.761)" fill="#eee"/>
        <path id="Path_38" data-name="Path 38" d="M306.157,358.96v12.821a4.66,4.66,0,0,1-.328,1.82,3.774,3.774,0,0,1-.86,1.289,3.518,3.518,0,0,1-1.255.77,4.344,4.344,0,0,1-1.492.26,4.06,4.06,0,0,1-2.115-.531,8.068,8.068,0,0,1-1.887-1.684l-2.827-3.263L292.5,367.18v8.739H286.62V363.1a4.66,4.66,0,0,1,.328-1.82,3.774,3.774,0,0,1,.86-1.289,3.489,3.489,0,0,1,1.255-.768,4.343,4.343,0,0,1,1.492-.26,4.06,4.06,0,0,1,2.115.531,8.068,8.068,0,0,1,1.887,1.684l.576.666v0a8.332,8.332,0,0,1,.6.6l4.544,5.123v-8.6h5.879Z" transform="translate(-244.836 -337.728)" fill="#eee"/>
        <path id="Path_39" data-name="Path 39" d="M417.045,375.959H401.33V359h15.715v5.2h-9.723v1.448h9.5l-.005,3.663h-9.5v1.448h9.723v5.2Z" transform="translate(-339.295 -337.761)" fill="#eee"/>
        <path id="Path_40" data-name="Path 40" d="M500.269,375.959H494.39V359h5.879Zm12.572,0h-7.235l-3.234-4.59c-.392-.558-.777-1.141-1.153-1.753a4.321,4.321,0,0,1,0-4.272q.564-.916,1.153-1.753l3.234-4.59h7.235l-6.082,8.48Z" transform="translate(-415.925 -337.761)" fill="#eee"/>
        <path id="Path_41" data-name="Path 41" d="M618.6,375.959H602.89V359H618.6v5.2h-9.722v1.448h9.5l-.005,3.663h-9.5v1.448H618.6v5.2Z" transform="translate(-505.27 -337.761)" fill="#eee"/>
        <path id="Path_42" data-name="Path 42" d="M715.5,358.96v12.821a4.661,4.661,0,0,1-.328,1.82,3.774,3.774,0,0,1-.86,1.289,3.517,3.517,0,0,1-1.255.77,4.344,4.344,0,0,1-1.492.26,4.049,4.049,0,0,1-2.113-.531,8.069,8.069,0,0,1-1.887-1.684l-2.826-3.263-2.894-3.261v8.739H695.96V363.1a4.659,4.659,0,0,1,.328-1.82,3.774,3.774,0,0,1,.86-1.289,3.489,3.489,0,0,1,1.255-.768,4.343,4.343,0,0,1,1.492-.26,4.06,4.06,0,0,1,2.115.531,8.068,8.068,0,0,1,1.887,1.684l.576.666v0c.221.2.427.41.6.6l4.546,5.123v-8.6H715.5Z" transform="translate(-581.908 -337.728)" fill="#eee"/>
        <path id="Path_43" data-name="Path 43" d="M58.092,495.959H50.02V479h7.846a12.356,12.356,0,0,1,4.036.632,9.338,9.338,0,0,1,3.132,1.753,7.986,7.986,0,0,1,2.013,2.657,7.715,7.715,0,0,1,.724,3.324,8.77,8.77,0,0,1-.644,3.358,7.776,7.776,0,0,1-1.877,2.736,8.756,8.756,0,0,1-3.042,1.831A11.836,11.836,0,0,1,58.092,495.959Zm-2.193-5.2h1.7a7.64,7.64,0,0,0,1.628-.169,3.708,3.708,0,0,0,1.335-.565,2.9,2.9,0,0,0,.9-1.029,3.275,3.275,0,0,0,.339-1.561,2.892,2.892,0,0,0-.339-1.425,3.086,3.086,0,0,0-.9-1.017,3.831,3.831,0,0,0-1.335-.6A6.655,6.655,0,0,0,57.6,484.2H55.9Z" transform="translate(-50.008 -436.576)" fill="#eee"/>
        <path id="Path_44" data-name="Path 44" d="M172.3,487.38h0v.026a8.262,8.262,0,0,1-.7,3.416,8.38,8.38,0,0,1-1.9,2.7,8.511,8.511,0,0,1-2.819,1.757,9.772,9.772,0,0,1-6.9,0,8.511,8.511,0,0,1-2.819-1.757,8.371,8.371,0,0,1-1.9-2.7,8.256,8.256,0,0,1-.7-3.416V478.95h5.616v8.43h0v.026a3.3,3.3,0,0,0,.9,2.375,3.105,3.105,0,0,0,2.353.943,3.14,3.14,0,0,0,2.364-.943,3.279,3.279,0,0,0,.911-2.375V478.95H172.3Z" transform="translate(-136.091 -436.534)" fill="#eee"/>
        <path id="Path_45" data-name="Path 45" d="M271.2,495.959h-5.879V484.2H259.1V479h18.292v5.2h-6.2Z" transform="translate(-222.175 -436.576)" fill="#eee"/>
        <path id="Path_46" data-name="Path 46" d="M378.548,495.967H371.47a8.975,8.975,0,0,1-3.482-.667,8.548,8.548,0,0,1-2.77-1.82,8.456,8.456,0,0,1-1.831-2.7,8.443,8.443,0,0,1,0-6.58,8.368,8.368,0,0,1,1.831-2.691,8.875,8.875,0,0,1,6.252-2.5h7.078v5.2H372.94a4.7,4.7,0,0,0-2.8.791,3.331,3.331,0,0,0,0,4.963,4.658,4.658,0,0,0,2.8.8h5.607v5.2Z" transform="translate(-307.501 -436.584)" fill="#eee"/>
        <path id="Path_47" data-name="Path 47" d="M462.319,495.959H456.44V479h5.879v5.653h6.308V479h5.879v16.959h-5.879V490.17h-6.308Z" transform="translate(-384.675 -436.576)" fill="#eee"/>
        <path id="Path_48" data-name="Path 48" d="M67.429,615.967H59.222a10.1,10.1,0,0,1-3.73-.667,8.852,8.852,0,0,1-2.906-1.82,8.286,8.286,0,0,1-1.887-2.7,8.237,8.237,0,0,1,1.887-9.271,9.1,9.1,0,0,1,2.906-1.82,9.963,9.963,0,0,1,3.73-.678h8.208v5.2h-7.3a4.433,4.433,0,0,0-2.8.86,3.193,3.193,0,0,0,0,4.837,4.433,4.433,0,0,0,2.8.86H61.55v-4.883h5.879v10.084Z" transform="translate(-50.008 -535.398)" fill="#eee"/>
        <path id="Path_49" data-name="Path 49" d="M159.532,615.931h-6.965l-4.636-6.421v6.421h-5.879v-6.038a3.592,3.592,0,0,1,.983-2.544,3.491,3.491,0,0,1,2.68-1.052h6.919c.461,0,.837-.6.837-1.063s-.376-1.063-.837-1.063H139.79v-5.2h13.861a6.575,6.575,0,0,1,2.555.464,5.568,5.568,0,0,1,1.843,1.209,4.968,4.968,0,0,1,1.109,1.718,5.434,5.434,0,0,1,.373,1.967,5.6,5.6,0,0,1-.305,1.82,4.975,4.975,0,0,1-.9,1.6,5.22,5.22,0,0,1-1.5,1.209,5.885,5.885,0,0,1-2.08.655l4.793,6.308Z" transform="translate(-123.929 -535.365)" fill="#eee"/>
        <path id="Path_50" data-name="Path 50" d="M276.511,615.967H270.3l-1.269-3.369h-5.992l-1.248,3.369H255.67l4.97-12.459a8.3,8.3,0,0,1,2.272-3.369,5.159,5.159,0,0,1,6.444,0,8.137,8.137,0,0,1,2.249,3.369l4.9,12.459ZM264.665,607.6h2.691L266,604.412Z" transform="translate(-219.351 -535.398)" fill="#eee"/>
        <path id="Path_51" data-name="Path 51" d="M397.167,598.96v12.821a4.66,4.66,0,0,1-.328,1.82,3.774,3.774,0,0,1-.86,1.289,3.518,3.518,0,0,1-1.255.77,4.344,4.344,0,0,1-1.492.26,4.06,4.06,0,0,1-2.115-.531,8.067,8.067,0,0,1-1.887-1.684l-2.827-3.263-2.894-3.261v8.739H377.63V603.1a4.659,4.659,0,0,1,.328-1.82,3.774,3.774,0,0,1,.86-1.289,3.49,3.49,0,0,1,1.255-.768,4.343,4.343,0,0,1,1.492-.26,4.049,4.049,0,0,1,2.113.531,8.068,8.068,0,0,1,1.887,1.684l.576.666v0a8.332,8.332,0,0,1,.6.6l4.544,5.123v-8.6h5.879Z" transform="translate(-319.779 -535.357)" fill="#eee"/>
        <path id="Path_52" data-name="Path 52" d="M500.422,615.959H492.35V599H500.2a12.355,12.355,0,0,1,4.036.632,9.338,9.338,0,0,1,3.132,1.753,7.987,7.987,0,0,1,2.013,2.657,7.716,7.716,0,0,1,.724,3.324,8.769,8.769,0,0,1-.644,3.358,7.777,7.777,0,0,1-1.877,2.737,8.765,8.765,0,0,1-3.04,1.831,11.838,11.838,0,0,1-4.115.667Zm-2.193-5.2h1.7a7.638,7.638,0,0,0,1.628-.169,3.709,3.709,0,0,0,1.335-.565,2.9,2.9,0,0,0,.9-1.029,3.275,3.275,0,0,0,.339-1.561,2.892,2.892,0,0,0-.339-1.425,3.087,3.087,0,0,0-.9-1.017,3.844,3.844,0,0,0-1.335-.6,6.652,6.652,0,0,0-1.628-.193h-1.7Z" transform="translate(-414.245 -535.39)" fill="#eee"/>
        <path id="Path_53" data-name="Path 53" d="M630.653,615.959H625V599h11.306a6.253,6.253,0,0,1,2.51.464,5.129,5.129,0,0,1,1.764,1.232,4.981,4.981,0,0,1,1.04,1.753,6.081,6.081,0,0,1,.339,2,6.4,6.4,0,0,1-.339,2.036,5.18,5.18,0,0,1-2.8,3.12,5.865,5.865,0,0,1-2.51.5h-5.653Zm0-10.379h4.511a1.029,1.029,0,0,0,0-2.059h-4.511v2.057Z" transform="translate(-523.476 -535.39)" fill="#eee"/>
        <path id="Path_54" data-name="Path 54" d="M742.53,615.959h-6.965l-4.636-6.421v6.421H725.05V599h11.6a6.575,6.575,0,0,1,2.555.464,5.567,5.567,0,0,1,1.843,1.209,4.969,4.969,0,0,1,1.109,1.718,5.433,5.433,0,0,1,.372,1.967,5.6,5.6,0,0,1-.305,1.82,4.974,4.974,0,0,1-.9,1.6,5.218,5.218,0,0,1-1.5,1.209,5.883,5.883,0,0,1-2.08.655l4.793,6.308ZM730.7,603.682v2.1h4.714a1.052,1.052,0,1,0,0-2.1H730.7Z" transform="translate(-605.862 -535.39)" fill="#eee"/>
        <path id="Path_55" data-name="Path 55" d="M834.029,615.959H828.15V599h5.879Z" transform="translate(-690.76 -535.39)" fill="#eee"/>
        <path id="Path_56" data-name="Path 56" d="M872.871,615.967H865.5l6.829-8.57L865.5,599.01h7.484l3.346,4.092,3.255-4.092h7.3L880.06,607.6l6.9,8.367h-7.53l-3.346-4.115-3.211,4.115Z" transform="translate(-721.516 -535.398)" fill="#eee"/>
      </g>
    </g>
    <g id="Racing_Line" transform="translate(107.617 67.002)">
      <path id="Path_57" data-name="Path 57" d="M590.587,212.76H572.661l-.441.441h16.25a14.83,14.83,0,0,1,14.83,14.83v65.676a14.83,14.83,0,0,1-14.83,14.83H488.491l-.441.441H590.587a14.83,14.83,0,0,0,14.83-14.83V227.59a14.83,14.83,0,0,0-14.83-14.83Z" transform="translate(-468.626 -202.608)" fill="#e6002b"/>
      <path id="Path_58" data-name="Path 58" d="M574.464,193.172H560l-.441.441h12.791a18.363,18.363,0,0,1,18.363,18.363V277.5a18.363,18.363,0,0,1-18.363,18.363H468.911l-.441.441H574.464a18.363,18.363,0,0,0,18.363-18.363v-66.41a18.363,18.363,0,0,0-18.363-18.363Z" transform="translate(-452.503 -186.477)" fill="#e6002b"/>
      <path id="Path_59" data-name="Path 59" d="M559.37,174.84H548.138l-.441.441h9.555a21.89,21.89,0,0,1,21.89,21.89v64.945a21.89,21.89,0,0,1-21.89,21.89H450.581l-.441.441H559.372a21.89,21.89,0,0,0,21.89-21.89V196.73a21.89,21.89,0,0,0-21.89-21.89Z" transform="translate(-437.409 -171.383)" fill="#e6002b"/>
      <path id="Path_60" data-name="Path 60" d="M498.284,155.26h-8.3l-.471.441h6.508c14.984,0,27.13,11.382,27.13,25.423v64.793c0,14.041-12.146,25.423-27.13,25.423H378.03v.441H498.284c14.984,0,27.13-11.382,27.13-25.423V180.683C525.414,166.642,513.268,155.26,498.284,155.26Z" transform="translate(-378.03 -155.26)" fill="#e6002b"/>
    </g>
  </g>
</svg>
